<svg version="1.1" xmlns="http://www.w3.org/2000/svg" viewBox="0 0 108.1 108.1">
<path fill="#00B38A" d="M54,0C24.2,0,0,24.2,0,54s24.2,54,54,54s54-24.2,54-54S83.9,0,54,0L54,0z M85.2,88.1
	c8.4-16.3,6.5-26.2,6.5-26.2L76,60.6l11.8,5.9C85.9,98.8,57,101.2,57,101.2c21.4-13.8,21-30.1,21-30.1l-7.2-3.9
	c-3.8,7.4-9.4,13.8-16.4,18.3c-13.8-9.2-15.7-18.3-15.7-18.3l-9.2,4.6c5.2,21.2,21.6,29.5,21.6,29.5c-28.2-3.4-30.8-34.7-30.8-34.7
	l11.1-5.9l-14.4,1.3c-1.8,9.2,5.4,25.9,5.9,26.8C12.7,80.1,7,67.3,7.2,54l21-0.7C22,52.2,7.9,43.5,7.9,43.5
	C12.8,24.9,21.1,20.3,21.6,20c-6.8,10.4-4.5,18.3-4.5,18.3c5.8,5.5,16.4,7.9,16.4,7.9C25.7,39.2,21,28.5,21,28.5
	C30.1,7.6,46.9,7.5,47.2,7.5C30.8,19.4,30.8,28.5,30.8,28.5c1.5,5.4,7.9,10.5,7.9,10.5C45,26.4,54.4,22,54.4,22
	c6.6,4,11.9,10,15.1,17c5.2-2.2,8.5-10.5,8.5-10.5C76.3,17.6,60.3,6.9,60.3,6.9c12.3,2,22.6,10.2,27.5,21.6
	c-2.9,6.9-7.4,12.9-13.1,17.7c11.8-3,16.4-7.9,16.4-7.9c2.2-7.5-3.3-17.3-3.8-18.3c12.1,12,13,22.9,13,22.9
	C94.8,48.6,79.9,54,79.9,54l21,0.6C100.2,79.9,85.2,88.1,85.2,88.1z M54.4,30.4C48.1,33.9,44.2,42.8,44,43.5
	c2.9-2.5,6.6-3.9,10.4-3.9c3.7-0.1,7.2,1.3,9.8,3.9C62.4,38.2,59,33.6,54.4,30.4z M43.9,63.9c0.2,0.6,4.1,9.6,10.4,13.1
	c4.6-3.1,8.1-7.7,9.8-13c-2.6,2.5-6.2,3.9-9.8,3.9C50.5,67.8,46.8,66.4,43.9,63.9z M59.6,54c0-2.9-2.4-5.2-5.3-5.2s-5.2,2.4-5.2,5.3
	c0,2.9,2.4,5.2,5.2,5.2C57.3,59.3,59.6,56.9,59.6,54C59.6,54,59.6,54,59.6,54L59.6,54z"/>
</svg>
