<?xml version="1.0" encoding="utf-8"?>
<!-- Generator: Adobe Illustrator 23.0.0, SVG Export Plug-In . SVG Version: 6.00 Build 0)  -->
<svg version="1.1" id="图层_1" xmlns="http://www.w3.org/2000/svg" xmlns:xlink="http://www.w3.org/1999/xlink" x="0px" y="0px"
	 viewBox="0 0 478.8 108.1" style="enable-background:new 0 0 478.8 108.1;" xml:space="preserve">
<style type="text/css">
	.st0{fill-rule:evenodd;clip-rule:evenodd;fill:#14AA84;}
	.st1{fill:#14AA84;}
	.st2{fill:#fff;}
</style>
<title>logo</title>
<path class="st0" d="M54,0C24.2,0,0,24.2,0,54s24.2,54,54,54s54-24.2,54-54S83.9,0,54,0L54,0z M85.2,88.1
	c8.4-16.3,6.5-26.2,6.5-26.2L76,60.6l11.8,5.9C85.9,98.8,57,101.2,57,101.2c21.4-13.8,21-30.1,21-30.1l-7.2-3.9
	c-3.8,7.4-9.4,13.8-16.4,18.3c-13.8-9.2-15.7-18.3-15.7-18.3l-9.2,4.6c5.2,21.2,21.6,29.5,21.6,29.5c-28.2-3.4-30.8-34.7-30.8-34.7
	l11.1-5.9l-14.4,1.3c-1.8,9.2,5.4,25.9,5.9,26.8C12.7,80.1,7,67.3,7.2,54l21-0.7C22,52.2,7.9,43.5,7.9,43.5
	C12.8,24.9,21.1,20.3,21.6,20c-6.8,10.4-4.5,18.3-4.5,18.3c5.8,5.5,16.4,7.9,16.4,7.9C25.7,39.2,21,28.5,21,28.5
	C30.1,7.6,46.9,7.5,47.2,7.5C30.8,19.4,30.8,28.5,30.8,28.5c1.5,5.4,7.9,10.5,7.9,10.5C45,26.4,54.4,22,54.4,22
	c6.6,4,11.9,10,15.1,17c5.2-2.2,8.5-10.5,8.5-10.5C76.3,17.6,60.3,6.9,60.3,6.9c12.3,2,22.6,10.2,27.5,21.6
	c-2.9,6.9-7.4,12.9-13.1,17.7c11.8-3,16.4-7.9,16.4-7.9c2.2-7.5-3.3-17.3-3.8-18.3c12.1,12,13,22.9,13,22.9
	C94.8,48.6,79.9,54,79.9,54l21,0.6C100.2,79.9,85.2,88.1,85.2,88.1z M54.4,30.4C48.1,33.9,44.2,42.8,44,43.5
	c2.9-2.5,6.6-3.9,10.4-3.9c3.7-0.1,7.2,1.3,9.8,3.9C62.4,38.2,59,33.6,54.4,30.4z M43.9,63.9c0.2,0.6,4.1,9.6,10.4,13.1
	c4.6-3.1,8.1-7.7,9.8-13c-2.6,2.5-6.2,3.9-9.8,3.9C50.5,67.8,46.8,66.4,43.9,63.9z M59.6,54c0-2.9-2.4-5.2-5.3-5.2s-5.2,2.4-5.2,5.3
	c0,2.9,2.4,5.2,5.2,5.2C57.3,59.3,59.6,56.9,59.6,54C59.6,54,59.6,54,59.6,54L59.6,54z"/>
<path class="st1" d="M145,46.7h-9.9v17.5h-13V6.4h23.6c14.1,0,19.3,5.6,19.3,16.4v7.6C165,41.2,159.1,46.7,145,46.7z M152,24
	c0-4.2-1.5-6.1-6.9-6.1h-9.9v17.5h9.9c5.7,0,6.9-2.2,6.9-6.3V24z"/>
<path class="st1" d="M172.8,64.2V4.7l12.5-1.7v61.3H172.8z"/>
<path class="st1" d="M219.3,64.2l-0.9-2.7c-3.7,2.2-7.8,3.4-12.1,3.6c-7.8,0-11-5.6-11-12.9c0-8.5,3.9-11.9,12.6-11.9h9.1v-3.2
	c0-4.3-0.8-5.8-7.5-5.8c-3.9,0-7.7,0.4-11.5,1.2l-1.6-9.4c5-1.3,10.1-2,15.2-2.1c14.7,0,17.9,4.4,17.9,16.2v27L219.3,64.2z M217,49
	h-6c-2.7,0-3.7,0.7-3.7,3s1,3.3,3.4,3.3c2.2,0,4.4-0.5,6.3-1.5L217,49z"/>
<path class="st1" d="M264.6,64.2v-28c0-1.9-0.9-3-3-3s-6.4,1.6-9.1,3v28H240V21.9h9.3l1.3,3.2c5.3-2.5,11-3.9,16.9-4.1
	c7.2,0,9.7,5.4,9.7,13.6v29.6H264.6z"/>
<path class="st1" d="M302.2,65.1c-8.1,0-12.8-3-12.8-10.9V32h-5.7V21.9h5.7V11.8l12.5-1.8v11.9h9.6L310.9,32h-8.9v20.5
	c0,1.7,1,2.3,2.6,2.3c1.8,0,3.5-0.3,5.2-0.8l1.5,9.5C308.3,64.5,305.3,65.1,302.2,65.1z"/>
<path class="st1" d="M341.8,64.2h-22.5V6.4h22.5c14.3,0,19.5,7.2,19.5,15v27.8C361.3,57,356,64.2,341.8,64.2z M348.2,25
	c0-4.5-1.6-7-8.1-7h-7.8v34.8h7.8c6.5,0,8.1-2.5,8.1-7V25z"/>
<path class="st1" d="M393.9,64.2l-0.9-2.7c-3.7,2.2-7.8,3.4-12.1,3.6c-7.8,0-11-5.6-11-12.9c0-8.5,3.9-11.9,12.6-11.9h9.1v-3.2
	c0-4.3-0.8-5.8-7.5-5.8c-3.9,0-7.7,0.4-11.5,1.2l-1.6-9.4c5-1.3,10.1-2.1,15.2-2.1c14.7,0,17.9,4.4,17.9,16.2v27L393.9,64.2z
	 M391.7,49h-6c-2.7,0-3.7,0.7-3.7,3s1,3.3,3.4,3.3c2.2,0,4.4-0.5,6.4-1.5V49z"/>
<path class="st1" d="M428.8,65.1c-8.1,0-12.8-3-12.8-10.9V32h-5.7V21.9h5.7V11.8l12.5-1.8v11.9h9.6L437.4,32h-9v20.5
	c0,1.7,1,2.3,2.6,2.3c1.8,0,3.5-0.3,5.2-0.8l1.5,9.5C434.9,64.5,431.8,65.1,428.8,65.1z"/>
<path class="st1" d="M468.5,64.2l-0.9-2.7c-3.7,2.2-7.8,3.4-12.1,3.6c-7.8,0-11-5.6-11-12.9c0-8.5,3.9-11.9,12.6-11.9h9.1v-3.2
	c0-4.3-0.8-5.8-7.5-5.8c-3.9,0-7.7,0.4-11.5,1.2l-1.7-9.4c5-1.3,10.1-2,15.2-2.1c14.7,0,17.9,4.4,17.9,16.2v27L468.5,64.2z
	 M466.3,49h-6c-2.7,0-3.7,0.7-3.7,3s1,3.3,3.4,3.3c2.2,0,4.4-0.5,6.3-1.5L466.3,49z"/>
<path class="st2" d="M120.3,81.3h2.1l-2.1-5.9h4.2l2.8,8h-2.1l2.1,5.9h-4.2L120.3,81.3z M120.3,101.3l2.9-10.2h4.2l-2.8,10.2H120.3z
	 M145.8,92v3h0.9v2.7h-0.9v0.7c0,0.8-0.3,1.6-0.9,2.2c-0.4,0.4-0.9,0.6-1.5,0.6h-4.5l1.1-2.5h1.2c0.2,0,0.4-0.1,0.5-0.2
	c0.1-0.2,0.2-0.4,0.2-0.6v-0.2h-10.1c-0.7,0-1.4-0.3-1.9-0.9c-0.5-0.6-0.8-1.4-0.8-2.1V92H128v-3.1h1.2v-6.7h16.6v6.7h1.4V92H145.8z
	 M134.9,75.5l-0.7,1.7h12.9v3.5h-18.7l2-5.3L134.9,75.5z M132.9,88.9h3.1l-0.5-2.7h3.1l0.7,2.7h2.7v-3.6h-9L132.9,88.9z M141.9,92
	h-9v1.9c0,0.3,0.1,0.6,0.3,0.8c0.2,0.2,0.4,0.3,0.7,0.3h2l-0.4-2.2h3.1l0.5,2.2h2.8L141.9,92z"/>
<path class="st2" d="M176.1,101.3c-2.5-0.5-5-1.3-7.3-2.4c-2.1-1-4.1-2.2-5.9-3.6c-1.8,1.4-3.8,2.6-5.9,3.6
	c-2.3,1.1-4.8,1.9-7.3,2.4V96c1.7-0.4,3.4-1,5.1-1.8c1.5-0.7,2.9-1.5,4.3-2.4c-1.4-1.5-2.6-3-3.8-4.6c-0.5-0.7-1.1-1.5-1.6-2.3
	s-1-1.7-1.5-2.6s-1-1.9-1.4-2.9c-0.4-1-0.8-2-1.1-3.1h5.2c0.2,0.8,0.5,1.6,0.9,2.4c0.4,0.8,0.8,1.6,1.2,2.3s0.9,1.4,1.3,2.1
	s0.9,1.3,1.4,1.8c1,1.3,2.1,2.6,3.3,3.7c1.2-1.2,2.3-2.4,3.3-3.7c1-1.3,1.9-2.6,2.7-4c0.9-1.5,1.6-3.1,2.1-4.7h5.2
	c-0.3,1-0.7,2.1-1.1,3.1c-0.4,1-0.9,2-1.4,2.9s-1,1.8-1.6,2.6s-1.1,1.6-1.6,2.3c-1.2,1.6-2.4,3.2-3.8,4.6c1.4,0.9,2.8,1.7,4.3,2.4
	c1.6,0.8,3.3,1.4,5.1,1.8V101.3z"/>
<path class="st2" d="M177.4,101.1l3.7-10.2h-3.7v-3.5h4.7V81h-4.7l2-5.3h4.5l-0.7,1.8h7.3V81h-3.9v6.4h4.2v3.5H186l-0.9,2.3h3.4
	l2.7,8h-4.6l-2.1-6.3l-2.3,6.3L177.4,101.1z M203,77.2h1v19.4c0,0.5-0.1,1-0.3,1.5c-0.2,0.5-0.4,0.9-0.7,1.2
	c-0.3,0.4-0.7,0.6-1.1,0.8c-0.4,0.2-0.9,0.3-1.3,0.3h-8.8V77.3l0,0l0,0h11L203,77.2z M199.8,80.7h-3.7V97h2.7c0.3,0,0.5-0.1,0.7-0.3
	c0.2-0.2,0.3-0.5,0.3-0.8V80.7z"/>
<path class="st2" d="M220.4,101.1l3.7-10.2h-3.7v-3.5h4.7V81h-4.7l2-5.3h4.5l-0.7,1.8h7.3V81h-3.8v6.4h4.2v3.5H229l-0.9,2.3h3.4
	l2.7,8h-4.6l-2.1-6.3l-2.3,6.3L220.4,101.1z M246,77.2h1v19.4c0,0.5-0.1,1-0.3,1.5c-0.2,0.5-0.4,0.9-0.7,1.2
	c-0.3,0.4-0.7,0.6-1.1,0.8c-0.4,0.2-0.8,0.3-1.3,0.3h-8.8V77.3l0,0l0,0h11L246,77.2z M242.8,80.7H239V97h2.7c0.3,0,0.5-0.1,0.7-0.3
	c0.2-0.2,0.3-0.5,0.3-0.8V80.7z"/>
<path class="st2" d="M250.3,82.9h6V97c0,0.3,0.1,0.5,0.2,0.8c0.2,0.2,0.4,0.3,0.7,0.3h1.5l-1.2,3.1h-2.1c-0.5,0-0.9-0.1-1.3-0.3
	c-0.4-0.2-0.7-0.5-1-0.9c-0.3-0.4-0.6-0.8-0.7-1.3c-0.2-0.5-0.3-1-0.3-1.5V86.5h-1.8L250.3,82.9z M250.3,75.5h5l2.3,5.4h-5
	L250.3,75.5z M259.3,101.3l1.8-8.2h4.4l-1.8,8.2H259.3z M275.7,87.4c0,0.5-0.1,1-0.3,1.5c-0.1,0.2-0.2,0.4-0.3,0.6
	c-0.1,0.2-0.2,0.4-0.4,0.6c-0.2,0.2-0.3,0.3-0.5,0.5c-0.2,0.1-0.4,0.3-0.6,0.3c-0.4,0.2-0.8,0.3-1.3,0.3h-12.6V76.2h15.9L275.7,87.4
	z M271.5,79.7H264v8h6.5c0.3,0,0.5-0.1,0.7-0.3c0.2-0.2,0.3-0.5,0.3-0.8V79.7z M276.4,101.3H272l-1.8-8.2h4.3L276.4,101.3z"/>
<path class="st2" d="M279.8,101.2V75.6h22.4l0,0h4.2v21.8c0,0.5-0.1,1-0.3,1.5c-0.2,0.5-0.4,0.9-0.7,1.3c-0.3,0.3-0.7,0.6-1.1,0.8
	c-0.4,0.2-0.8,0.3-1.3,0.3L279.8,101.2z M284,79.1v18.6h17.2c0.3,0,0.5-0.1,0.7-0.3c0.2-0.2,0.3-0.5,0.3-0.8V79.1H284z M285.1,88.1
	l1.8-0.2c0.6-0.1,1.1-0.2,1.7-0.3c-0.6-0.4-1.1-0.9-1.6-1.4c-0.5-0.5-1-1.1-1.4-1.7h4.4c0.4,0.4,0.9,0.7,1.4,1
	c0.5,0.3,1,0.6,1.5,0.8c1.4-0.6,2.7-1.5,3.7-2.6h-11.2l1.4-4.1h3.9l-0.3,0.9h10.3v3.1c-0.4,0.8-1,1.5-1.6,2.2
	c-0.6,0.6-1.2,1.2-1.9,1.6c0.5,0.1,1.1,0.2,1.6,0.3l1.8,0.2v2.8c-1.4-0.1-2.7-0.3-4-0.5c-1.3-0.2-2.5-0.5-3.8-0.8
	c-1.2,0.4-2.5,0.6-3.7,0.8c-1.3,0.2-2.6,0.3-4,0.5L285.1,88.1z M285.4,91l15.3,1.1v2.2l-15.3-1.1V91z M285.4,93.9l15.3,1.1v2.4
	l-15.3-1.1L285.4,93.9z"/>
<path class="st2" d="M308.2,75.6h4.6l2.2,5.8h-4.6L308.2,75.6z M314.5,97.1c0,0.3,0.1,0.6,0.3,0.8c0.2,0.2,0.4,0.3,0.7,0.3h0.9
	l-1.2,3H314c-0.5,0-0.9-0.1-1.3-0.3c-0.4-0.2-0.8-0.5-1.1-0.8c-0.3-0.4-0.6-0.8-0.7-1.2c-0.2-0.5-0.3-1-0.3-1.5V86.8h-2.5v-3.5h6.4
	L314.5,97.1z M331.7,82h3.1l-1.7,3.5h-2.5v0.7h4.1v2.9h-18.3v-2.9h4.1v-0.7h-2.5l-1.7-3.5h3.1l1,2.1V81h-4.1v-3h3.7l-1-2.5h3.9
	L324,78h3.5l1.1-2.5h3.9l-1.1,2.5h3.4v3h-4.1v3.1L331.7,82z M334.4,97.5c0,0.5-0.1,1-0.3,1.5c-0.2,0.4-0.4,0.8-0.7,1.2
	c-0.3,0.3-0.6,0.6-1,0.8c-0.4,0.2-0.8,0.3-1.2,0.3h-14.3v-11h17.5L334.4,97.5z M330.3,93.2H321v1.1h9.3V93.2z M330.3,97.2H321v1.1
	h8.5c0.2,0,0.4-0.1,0.6-0.3c0.2-0.2,0.3-0.4,0.3-0.7L330.3,97.2z M326.5,86.2V81h-1.8v5.2L326.5,86.2z"/>
<path class="st2" d="M363.3,101.1h-26.6V98h11.1v-1.6h-9.3v-2.2h-1.7l2.4-3.2h-2.5v-2.7h3.4v-8.8h-2.5v-2.8h2.5v-1.1h4.5v1.1H356
	v-1.1h4.5v1.1h2.1v2.8h-2.1v8.8h2.8V91h-2.4l2.4,3.1h-2.4v2.2h-8.6V98h11L363.3,101.1z M347.8,93.3v-1.2h4.5v1.2h4.5l-1.6-2.2h-10.1
	l-1.6,2.2L347.8,93.3z M344.5,79.6v1.1H356v-1.1H344.5z M344.5,84.5H356v-1.2h-11.4L344.5,84.5z M344.5,88.3H356v-1.2h-11.4
	L344.5,88.3z"/>
<path class="st2" d="M365.1,86.4l2-7h-1.7v-3.1h10.3v3.1h-4.5l-1.1,3.8h5.2v14.9c0,0.8-0.3,1.6-0.8,2.2c-0.5,0.6-1.3,1-2.1,0.9h-6.2
	V86.4L365.1,86.4z M369.7,85.8v12.9h1.3c0.2,0,0.4-0.1,0.5-0.3c0.1-0.2,0.2-0.4,0.2-0.7v-12L369.7,85.8z M388.1,76.9h3.6v7.6
	c0,0.4-0.1,0.9-0.2,1.3c-0.2,0.4-0.4,0.7-0.6,1c-0.3,0.3-0.6,0.5-0.9,0.7c-0.4,0.2-0.7,0.3-1.1,0.3H386v10.3h1.3
	c0.2,0,0.4-0.1,0.6-0.3c0.2-0.2,0.2-0.4,0.2-0.7v-7.3h3.6v7.9c0,0.4-0.1,0.9-0.2,1.3c-0.1,0.4-0.4,0.7-0.6,1
	c-0.2,0.3-0.6,0.5-0.9,0.7c-0.3,0.2-0.7,0.3-1.1,0.3h-12.1V89.9h3.6v8.3h2.1V87.9h-5.7v-11h3.6v7.9h2.1v-9.4h3.6v9.4h1.3
	c0.2,0,0.4-0.1,0.6-0.3c0.2-0.2,0.2-0.4,0.2-0.7L388.1,76.9z"/>
<path class="st2" d="M402.1,75.6c0.7,0,1.3,0.3,1.7,0.8c0.5,0.6,0.7,1.3,0.7,2v20c0,0.5-0.1,0.9-0.2,1.3c-0.1,0.3-0.3,0.6-0.5,0.9
	c-0.2,0.2-0.4,0.4-0.6,0.5c-0.2,0.1-0.4,0.2-0.6,0.2h-3.6l0.9-2.4h0.5c0.1,0,0.2,0,0.2-0.1l0.1-0.1c0-0.1,0-0.2,0.1-0.3v-4.6h-2.9v4
	l-0.7,3.4h-3.5l0.5-3.4V75.6H402.1z M397.7,79.1v3.8h2.9v-2.7c0-0.3-0.1-0.6-0.3-0.8c-0.2-0.2-0.4-0.3-0.7-0.3H397.7z M400.6,90.3
	v-3.8h-2.9v3.8H400.6z M409.6,85.4h10.6v3.4c0,1.3-0.2,2.5-0.7,3.7c-0.4,1.2-1,2.3-1.7,3.4c0.4,0.2,0.7,0.4,1.1,0.6
	c0.4,0.2,0.8,0.4,1.3,0.6v4.2c-1.9-0.4-3.6-1.2-5.1-2.4c-1.5,1.2-3.2,2-5.1,2.4v-4.2c0.5-0.2,0.9-0.4,1.3-0.6
	c0.4-0.2,0.8-0.4,1.1-0.6c-0.6-0.9-1.1-1.9-1.5-2.9c-0.4-1.1-0.7-2.2-0.8-3.3h3.7c0.3,1.3,0.7,2.5,1.4,3.6c0.4-0.6,0.7-1.3,1-2
	c0.3-0.8,0.5-1.6,0.6-2.5h-7.1v8.6l-1,3.8h-4.2l1-3.9V75.6h14.8v5c0,0.5-0.1,1-0.3,1.5c-0.2,0.4-0.4,0.9-0.7,1.2
	c-0.3,0.3-0.7,0.6-1.1,0.8c-0.4,0.2-0.8,0.3-1.3,0.3h-5.2l0.5-3.1h2.9c0.2,0,0.5-0.1,0.6-0.3c0.2-0.2,0.3-0.5,0.3-0.8v-1.2h-6.4
	L409.6,85.4z"/>
<path class="st2" d="M448.2,89.6c-1.9-0.1-4-0.3-6.3-0.5c-2.3-0.3-4.5-0.6-6.8-1.2c-2.2,0.5-4.5,0.9-6.7,1.2
	c-2.3,0.3-4.4,0.4-6.3,0.5v-3.5l3.3-0.3c1-0.1,2-0.2,2.9-0.3c-1.1-0.5-2.2-1.1-3.2-1.9c-0.9-0.7-1.8-1.4-2.5-2.3h5.8
	c1.1,0.6,2.2,1.2,3.3,1.7c1.1,0.5,2.3,0.9,3.5,1.2c1.4-0.4,2.7-0.9,4-1.5c1.3-0.6,2.6-1.3,3.8-2.1h-20.6l2.3-5.1h3.8l-0.9,1.9h20.7
	v3.2c-0.8,1-1.7,2-2.7,2.7c-1.1,0.8-2.3,1.5-3.5,2.1c0.9,0.1,1.9,0.2,2.9,0.3l3.3,0.3L448.2,89.6z M448.6,97.8
	c0,0.4-0.1,0.9-0.2,1.3c-0.1,0.4-0.4,0.7-0.6,1.1c-0.2,0.3-0.6,0.6-0.9,0.7c-0.3,0.2-0.7,0.3-1.1,0.3H439l1.4-3.1h3.6
	c0.3,0,0.5-0.1,0.7-0.3c0.2-0.2,0.3-0.5,0.3-0.8v-3.2h-13.4l-4.5,7.5h-4.5l4.5-7.5h-4.5V91h6.2l1-1.8h4.5l-1.1,1.8h15.5L448.6,97.8
	L448.6,97.8z"/>
<path class="st2" d="M451.7,76.5h10.7l-0.3-1h4.6l0.3,1h11.4v3.4h-26.7V76.5z M451.7,82.2h4.9l-0.8-1.6h4.7l0.7,1.6h7.6l0.8-1.6h4.6
	l-0.8,1.6h2.3c0.7,0,1.4,0.3,1.8,0.9c0.5,0.6,0.8,1.3,0.7,2.1v12.1c0,0.5-0.1,1-0.2,1.5c-0.2,0.5-0.4,0.9-0.7,1.3
	c-0.3,0.3-0.7,0.6-1.1,0.9c-0.4,0.2-0.9,0.3-1.3,0.3h-3.6l1.2-3.1h0.6c0.3,0,0.5-0.1,0.7-0.4c0.2-0.2,0.3-0.5,0.3-0.8V86.6
	c0-0.3-0.1-0.5-0.2-0.7c-0.1-0.2-0.4-0.3-0.6-0.3h-17.4v15.7h-4.2L451.7,82.2z M461,90.3h-4.3l2.8-4.1h4.2L461,90.3z M472.8,95.7
	c0,0.5-0.1,1-0.3,1.5c-0.2,0.5-0.4,0.9-0.7,1.3c-0.3,0.3-0.6,0.6-1,0.8c-0.4,0.2-0.8,0.3-1.3,0.3h-12.3v-8.6h15.6L472.8,95.7z
	 M468,96.6c0.3,0,0.5-0.1,0.7-0.4c0.2-0.2,0.3-0.5,0.2-0.8V94H461v2.6L468,96.6z M473.4,90.3h-4.2l-2.8-4.1h4.2L473.4,90.3z"/>
</svg>
